REM Generated by IcecastMetadataRecorder
REM 2020-07-29T21:16:11.222Z
TITLE "isics-all"
FILE "isics-all.mp3" WAVE
  TRACK 1 AUDIO
    TITLE "2020-07-29T21:23:42.038Z TO:P:24605 [14002] Dallas County Law 1, Region 4 Interoperability Tac 42 FROM:11360"
    INDEX 01 07:30:60
  TRACK 2 AUDIO
    TITLE "2020-07-29T21:23:44.822Z TO:41 Polk County - West Des Moines Fire Paging FROM:1007"
    INDEX 01 07:33:44
  TRACK 3 AUDIO
    TITLE "2020-07-29T21:24:04.438Z TO:177 Polk County - Westcom Fire 2 FROM:1007"
    INDEX 01 07:53:16
  TRACK 4 AUDIO
    TITLE "2020-07-29T21:24:23.350Z TO:175 Polk County - Westcom Fire 1 FROM:1007"
    INDEX 01 08:12:09
  TRACK 5 AUDIO
    TITLE "2020-07-29T21:24:42.230Z TO:1101 Polk County - Westcom Law Enforcement 1 FROM:UNKNOWN"
    INDEX 01 08:31:01
  TRACK 6 AUDIO
    TITLE "2020-07-29T21:24:44.342Z TO:177 Polk County - Westcom Fire 2 FROM:1932"
    INDEX 01 08:33:09
  TRACK 7 AUDIO
    TITLE "2020-07-29T21:24:47.830Z TO:1101 Polk County - Westcom Law Enforcement 1 FROM:1004"
    INDEX 01 08:36:45
  TRACK 8 AUDIO
    TITLE "2020-07-29T21:24:50.646Z TO:177 Polk County - Westcom Fire 2 FROM:1007"
    INDEX 01 08:39:31
  TRACK 9 AUDIO
    TITLE "2020-07-29T21:24:52.726Z TO:1101 Polk County - Westcom Law Enforcement 1 FROM:UNKNOWN"
    INDEX 01 08:41:37
  TRACK 10 AUDIO
    TITLE "END"
    INDEX 01 08:42:67